<?xml version="1.0" encoding="utf-8"?>
<!-- Generator: Adobe Illustrator 19.0.0, SVG Export Plug-In . SVG Version: 6.00 Build 0)  -->
<svg version="1.1" id="Layer_1" xmlns="http://www.w3.org/2000/svg" xmlns:xlink="http://www.w3.org/1999/xlink" x="0px" y="0px"
	 viewBox="0 0 800 800" style="enable-background:new 0 0 800 800;" xml:space="preserve">
<style type="text/css">
	.st0{fill:none;stroke:#DBA693;stroke-width:4;stroke-miterlimit:10;}
</style>
<polyline id="XMLID_5_" class="st0" points="746.9,423.3 400.9,619.5 55.2,423.3 400.9,224.7 736.8,417.5 "/>
<polyline id="XMLID_8_" class="st0" points="398.3,645.8 55.2,446.5 55.2,538.2 400.9,735.6 400.9,653.2 400.9,735.6 744.4,537.6 
	744.4,449.4 401.6,647.3 "/>
<polyline id="XMLID_7_" class="st0" points="402.4,507.8 745.7,310.2 401.8,111.6 56.9,310.2 396,504.2 "/>
<polyline id="XMLID_10_" class="st0" points="403.6,538.2 746.9,340.5 403,141.9 58.1,340.5 397.2,534.5 "/>
<polyline id="XMLID_11_" class="st0" points="403.6,565.3 746.9,367.7 403,169.1 58.1,367.7 397.2,561.7 "/>
<polyline id="XMLID_12_" class="st0" points="403.6,592.5 746.9,394.8 403,196.2 58.1,394.8 397.2,588.8 "/>
<rect id="XMLID_1_" x="55.6" y="246.8" class="st0" width="5.3" height="291.4"/>
<rect id="XMLID_3_" x="399.8" y="445.4" class="st0" width="5.3" height="291.4"/>
<rect id="XMLID_4_" x="742.6" y="248.7" class="st0" width="5.3" height="291.4"/>
<rect id="XMLID_6_" x="399.8" y="63.2" class="st0" width="5.3" height="161.5"/>
</svg>
