<?xml version="1.0" encoding="utf-8"?>
<!-- Generator: Adobe Illustrator 19.0.0, SVG Export Plug-In . SVG Version: 6.00 Build 0)  -->
<svg version="1.1" id="Layer_3" xmlns="http://www.w3.org/2000/svg" xmlns:xlink="http://www.w3.org/1999/xlink" x="0px" y="0px"
	 viewBox="0 0 800 800" style="enable-background:new 0 0 800 800;" xml:space="preserve">
<style type="text/css">
	.st0{fill:none;stroke:#7F3F98;stroke-width:4;stroke-miterlimit:10;}
</style>
<polyline id="XMLID_3_" class="st0" points="41.3,56.6 420.3,56.6 755.7,56.6 "/>
<path id="XMLID_137_" class="st0" d="M253.1,56.6c0,0-67.9,313.3-158.2,378.1H42.4"/>
<path id="XMLID_139_" class="st0" d="M42.4,440.9l53.1-0.5c6.8,11.2,22.8,89.2,26,107.6c5,28.5,12.6,123.7,12.6,123.7l-92.8,2V420.1
	V56.6"/>
<path id="XMLID_140_" class="st0" d="M550.2,56.6c0,0,80.1,325.4,151.9,378.1h51.1"/>
<path id="XMLID_138_" class="st0" d="M753.2,440.9l-50.7,0c-6.5,10.2-23.3,86.4-26.9,107.1c-5,28.5-12.6,123.7-12.6,123.7l92.8,2
	V420.1V56.6"/>
<polyline id="XMLID_136_" class="st0" points="679.9,520.6 415.4,520.6 116.1,520.6 "/>
<polyline id="XMLID_141_" class="st0" points="665.3,656.8 388.3,656.8 131.3,655.9 "/>
<polyline id="XMLID_1_" class="st0" points="217.7,595.1 240.9,583.7 260.4,574.1 281.6,584.9 301.7,595.1 280.1,605.1 259.7,614.6 
	239.7,605.9 217.7,596.3 "/>
<polyline id="XMLID_4_" class="st0" points="466.2,597.9 489.5,586.4 508.9,576.9 530.1,587.6 550.2,597.9 528.7,607.8 508.2,617.3 
	488.2,608.6 466.2,599 "/>
</svg>
