<?xml version="1.0" encoding="utf-8"?>
<!-- Generator: Adobe Illustrator 19.0.0, SVG Export Plug-In . SVG Version: 6.00 Build 0)  -->
<svg version="1.1" id="Layer_1" xmlns="http://www.w3.org/2000/svg" xmlns:xlink="http://www.w3.org/1999/xlink" x="0px" y="0px"
	 viewBox="0 0 800 800" style="enable-background:new 0 0 800 800;" xml:space="preserve">
<style type="text/css">
	.st0{fill:none;stroke:#662D91;stroke-width:4;stroke-miterlimit:10;}
	.st1{display:none;fill:none;stroke:#662D91;stroke-width:4;stroke-miterlimit:10;}
</style>
<polyline id="XMLID_2_" class="st0" points="-1.1,684 206.5,452.2 435.5,452.2 800,684 "/>
<polyline id="XMLID_3_" class="st0" points="206.5,452.2 206.5,241.2 437.1,241.2 437.1,452.2 "/>
<polyline id="XMLID_4_" class="st0" points="206.5,241.2 137.9,135.8 51.7,0 "/>
<polyline id="XMLID_5_" class="st0" points="437.1,241.2 582.8,117.7 728.6,-5.8 "/>
<polyline id="XMLID_6_" class="st0" points="537,516.8 537,240 634.8,170.7 634.8,568.1 "/>
<polyline id="XMLID_7_" class="st0" points="137.9,528.9 137.9,249.2 69.3,170.5 69.3,605.3 "/>
<ellipse id="XMLID_1_" class="st1" cx="513.9" cy="295.5" rx="4.7" ry="10.8"/>
<polyline id="XMLID_9_" class="st0" points="562.4,311.7 584.3,301 602.7,292.2 "/>
<polyline id="XMLID_8_" class="st0" points="582.5,289.9 582.5,308.1 582.5,328.3 "/>
<polygon id="XMLID_11_" class="st0" points="579,289 574.4,278.5 574.4,266.2 579,254.9 584.6,252.7 588.3,260.8 589.5,268.1 
	589.5,278.3 584.9,287.6 "/>
<polygon id="XMLID_12_" class="st0" points="106.5,316.6 111.2,306.1 111.2,293.9 108.1,282.5 100.9,280.4 97.2,288.5 96.1,295.7 
	96.1,305.9 100.7,315.2 "/>
<polyline id="XMLID_13_" class="st0" points="118.1,260.6 115.5,266.1 106.7,284.4 "/>
<polyline id="XMLID_10_" class="st0" points="117.4,259.5 120.4,267.9 122,272.5 "/>
<polyline id="XMLID_14_" class="st0" points="121.1,260.4 113,263.6 106.9,266 "/>
</svg>
