<?xml version="1.0" encoding="utf-8"?>
<!-- Generator: Adobe Illustrator 19.0.0, SVG Export Plug-In . SVG Version: 6.00 Build 0)  -->
<svg version="1.1" id="Layer_1" xmlns="http://www.w3.org/2000/svg" xmlns:xlink="http://www.w3.org/1999/xlink" x="0px" y="0px"
	 width="800px" height="800px" viewBox="0 -25 800 800" style="enable-background:new 0 -25 800 800;" xml:space="preserve">
<polygon style="fill:#662D91;" points="798.9,635.7 434.9,404.2 207.4,404.2 0.4,635.3 -2.6,632.7 205.6,400.2 436.1,400.2 
	436.6,400.5 801.1,632.3 "/>
<polygon style="fill:#662D91;" points="439.1,402.2 435.1,402.2 435.1,193.2 208.5,193.2 208.5,402.2 204.5,402.2 204.5,189.2 
	439.1,189.2 "/>
<polygon style="fill:#662D91;" points="204.8,192.3 136.2,86.9 50,-48.9 53.4,-51.1 139.6,84.7 208.2,190.1 "/>
<polygon style="fill:#662D91;" points="438.4,192.7 435.8,189.7 581.5,66.2 727.3,-57.3 729.9,-54.3 584.1,69.2 "/>
<polygon style="fill:#662D91;" points="636.8,518.1 632.8,518.1 632.8,124.6 539,191 539,466.8 535,466.8 535,189 636.8,116.8 "/>
<polygon style="fill:#662D91;" points="71.3,555.3 67.3,555.3 67.3,115.2 139.9,198.5 139.9,478.9 135.9,478.9 135.9,199.9 
	71.3,125.8 "/>
<ellipse id="XMLID_1_" style="display:none;fill:none;stroke:#662D91;stroke-width:4;stroke-miterlimit:10;" cx="513.9" cy="245.5" rx="4.7" ry="10.8"/>
<polygon style="fill:#662D91;" points="563.3,263.5 561.5,259.9 583.4,249.2 601.8,240.4 603.6,244 585.2,252.8 "/>
<rect x="580.5" y="239.9" style="fill:#662D91;" width="4" height="38.4"/>
<path style="fill:#662D91;" d="M577.8,241.3l-5.4-12.4v-13.1l5.1-12.5l8.2-3.2l4.6,10.1l1.3,7.9v10.7l-5.2,10.6L577.8,241.3z
	 M576.4,228.1l3.8,8.6l3.4-0.8l4-8v-9.6l-1.1-6.9l-2.8-6.1l-3,1.2l-4.1,10.1V228.1z"/>
<path style="fill:#662D91;" d="M107.6,268.9l-8.3-2l-5.2-10.6l0-11l1.1-7.5l4.5-9.9l9.9,2.9l3.5,12.7v12.9L107.6,268.9z
	 M102.1,263.5l3.3,0.8l3.8-8.6v-11.5l-2.7-10.1l-4.5-1.3l-2.9,6.3l-1,6.8v9.6L102.1,263.5z"/>
<polygon style="fill:#662D91;" points="108.5,235.3 104.9,233.5 116.3,209.7 119.9,211.5 117.3,217 "/>
<polygon style="fill:#662D91;" points="120.1,223.2 118.5,218.6 115.5,210.2 119.3,208.8 123.9,221.8 "/>
<rect x="112" y="205.6" transform="matrix(0.3662 0.9305 -0.9305 0.3662 270.6501 29.0523)" style="fill:#662D91;" width="4" height="15.3"/>
</svg>
