<?xml version="1.0" encoding="utf-8"?>
<!-- Generator: Adobe Illustrator 19.0.0, SVG Export Plug-In . SVG Version: 6.00 Build 0)  -->
<svg version="1.1" id="Layer_1" xmlns="http://www.w3.org/2000/svg" xmlns:xlink="http://www.w3.org/1999/xlink" x="0px" y="0px"
	 width="800px" height="800px" viewBox="0 -25 800 800" style="enable-background:new 0 -25 800 800;" xml:space="preserve">
<polygon style="fill:#662D91;" points="146.1,177.8 10.3,177.8 10.3,108.4 14.3,108.4 14.3,173.8 142.1,173.8 142.1,99.2 12.3,99.2 
	12.3,95.2 146.1,95.2 "/>
<polygon style="fill:#662D91;" points="85.8,511.6 66.4,511.6 66.4,175.8 70.4,175.8 70.4,507.6 81.8,507.6 81.8,175.8 85.8,175.8 
	"/>
<polygon style="fill:#662D91;" points="529,335 238,335 238,321.9 242,321.9 242,331 525,331 525,321.2 240,321.2 240,317.2 
	529,317.2 "/>
<polygon style="fill:#662D91;" points="529,366.4 238,366.4 238,353.4 242,353.4 242,362.4 525,362.4 525,352.6 240,352.6 
	240,348.6 529,348.6 "/>
<polygon style="fill:#662D91;" points="529,397.9 238,397.9 238,384.8 242,384.8 242,393.9 525,393.9 525,384 240,384 240,380 
	529,380 "/>
<polygon style="fill:#662D91;" points="537.1,431.2 229.9,431.2 229.9,408.2 233.9,408.2 233.9,427.2 533.1,427.2 533.1,407.6 
	231.9,407.6 231.9,403.6 537.1,403.6 "/>
<g id="XMLID_4_">
	<rect x="263.1" y="333" style="fill:#662D91;" width="4" height="17.6"/>
	<rect x="263.1" y="364.4" style="fill:#662D91;" width="4" height="17.6"/>
	<rect x="263.1" y="395.9" style="fill:#662D91;" width="4" height="9.7"/>
	<rect x="246.7" y="333" style="fill:#662D91;" width="4" height="18"/>
	<rect x="246.7" y="364.4" style="fill:#662D91;" width="4" height="15.6"/>
	<rect x="246.7" y="395.9" style="fill:#662D91;" width="4" height="9.7"/>
</g>
<g id="XMLID_14_">
	<rect x="517.1" y="333" style="fill:#662D91;" width="4" height="17.6"/>
	<rect x="517.1" y="364.4" style="fill:#662D91;" width="4" height="17.6"/>
	<rect x="517.1" y="395.9" style="fill:#662D91;" width="4" height="9.7"/>
	<rect x="500.7" y="333" style="fill:#662D91;" width="4" height="18"/>
	<rect x="500.7" y="364.4" style="fill:#662D91;" width="4" height="15.6"/>
	<rect x="500.7" y="395.9" style="fill:#662D91;" width="4" height="9.7"/>
</g>
<polygon style="fill:#662D91;" points="267.1,506.4 246.7,506.4 246.7,431.9 250.7,431.9 250.7,502.4 263.1,502.4 263.1,432 
	267.1,432 "/>
<polygon style="fill:#662D91;" points="521.1,506.4 500.7,506.4 500.7,430.6 504.7,430.6 504.7,502.4 517.1,502.4 517.1,430.6 
	521.1,430.6 "/>
<rect y="470.3" style="fill:#662D91;" width="67.9" height="4"/>
<rect x="83.7" y="470.3" style="fill:#662D91;" width="164.6" height="4"/>
<rect x="266.2" y="470.3" style="fill:#662D91;" width="236.5" height="4"/>
<rect x="521.4" y="470.3" style="fill:#662D91;" width="278.6" height="4"/>
</svg>
