<?xml version="1.0" encoding="utf-8"?>
<!-- Generator: Adobe Illustrator 19.0.0, SVG Export Plug-In . SVG Version: 6.00 Build 0)  -->
<svg version="1.1" id="Layer_1" xmlns="http://www.w3.org/2000/svg" xmlns:xlink="http://www.w3.org/1999/xlink" x="0px" y="0px"
	 viewBox="0 0 800 800" style="enable-background:new 0 0 800 800;" xml:space="preserve">
<style type="text/css">
	.st0{fill:none;stroke:#662D91;stroke-width:4;stroke-miterlimit:10;}
</style>
<polyline id="XMLID_1_" class="st0" points="12.3,172.2 144.1,172.2 144.1,250.8 12.3,250.8 12.3,183.4 "/>
<polyline id="XMLID_3_" class="st0" points="83.8,250.8 83.8,584.6 68.4,584.6 68.4,250.8 "/>
<polyline id="XMLID_2_" class="st0" points="240,394.2 527,394.2 527,408 240,408 240,396.9 "/>
<polyline id="XMLID_5_" class="st0" points="240,425.6 527,425.6 527,439.4 240,439.4 240,428.4 "/>
<polyline id="XMLID_6_" class="st0" points="240,457 527,457 527,470.9 240,470.9 240,459.8 "/>
<polyline id="XMLID_21_" class="st0" points="231.9,480.6 535.1,480.6 535.1,504.2 231.9,504.2 231.9,483.2 "/>
<g id="XMLID_4_">
	<polyline id="XMLID_7_" class="st0" points="265.1,408 265.1,417 265.1,425.6 	"/>
	<polyline id="XMLID_8_" class="st0" points="265.1,439.4 265.1,449 265.1,457 	"/>
	<polyline id="XMLID_9_" class="st0" points="265.1,470.9 265.1,475.7 265.1,480.6 	"/>
	<polyline id="XMLID_10_" class="st0" points="248.7,408 248.7,416.8 248.7,426 	"/>
	<polyline id="XMLID_11_" class="st0" points="248.7,439.4 248.7,447.2 248.7,455 	"/>
	<polyline id="XMLID_12_" class="st0" points="248.7,470.9 248.7,475.7 248.7,480.6 	"/>
</g>
<g id="XMLID_14_">
	<polyline id="XMLID_20_" class="st0" points="519.1,408 519.1,416.8 519.1,425.6 	"/>
	<polyline id="XMLID_19_" class="st0" points="519.1,439.4 519.1,448.2 519.1,457 	"/>
	<polyline id="XMLID_18_" class="st0" points="519.1,470.9 519.1,475.7 519.1,480.6 	"/>
	<polyline id="XMLID_17_" class="st0" points="502.7,408 502.7,417 502.7,426 	"/>
	<polyline id="XMLID_16_" class="st0" points="502.7,439.4 502.7,447.2 502.7,455 	"/>
	<polyline id="XMLID_15_" class="st0" points="502.7,470.9 502.7,475.7 502.7,480.6 	"/>
</g>
<polyline id="XMLID_22_" class="st0" points="248.7,506.9 248.7,579.4 265.1,579.4 265.1,507 "/>
<polyline id="XMLID_23_" class="st0" points="502.7,505.6 502.7,579.4 519.1,579.4 519.1,505.6 "/>
<polyline id="XMLID_24_" class="st0" points="0,547.3 33.7,547.3 67.9,547.3 "/>
<polyline id="XMLID_25_" class="st0" points="83.7,547.3 166.8,547.3 248.3,547.3 "/>
<polyline id="XMLID_26_" class="st0" points="266.2,547.3 404.6,547.3 502.7,547.3 "/>
<polyline id="XMLID_27_" class="st0" points="521.4,547.3 638.5,547.3 800,547.3 "/>
</svg>
