<?xml version="1.0" encoding="utf-8"?>
<!-- Generator: Adobe Illustrator 19.0.0, SVG Export Plug-In . SVG Version: 6.00 Build 0)  -->
<svg version="1.1" id="Layer_3" xmlns="http://www.w3.org/2000/svg" xmlns:xlink="http://www.w3.org/1999/xlink" x="0px" y="0px"
	 width="800px" height="800px" viewBox="0 -25 800 800" style="enable-background:new 0 -25 800 800;" xml:space="preserve">
<rect x="41.3" y="29.6" style="fill:#7F3F98;" width="714.4" height="4"/>
<path style="fill:#7F3F98;" d="M95.5,411.7H42.4v-4h51.9c46-33.5,86.1-133.7,111.7-211.9c27.9-85.3,45-163.8,45.2-164.6l3.9,0.8
	c-0.2,0.8-17.3,79.4-45.3,164.9c-37.6,115.1-75.9,187.2-113.7,214.4L95.5,411.7z"/>
<path style="fill:#7F3F98;" d="M39.3,650.7V31.6h4v382.3l53.3-0.5l0.6,1c7.1,11.6,23.1,90.3,26.3,108.3
	c5,28.3,12.5,122.9,12.6,123.9l0.2,2.1L39.3,650.7z M43.3,417.9v228.8l88.6-1.9c-1.2-14.2-7.9-95.7-12.4-121.4
	c-3.7-21.2-18.6-92.5-25.2-105.9L43.3,417.9z"/>
<path style="fill:#7F3F98;" d="M753.2,411.7h-51.8l-0.5-0.4c-30.1-22.1-65-92.7-103.6-209.8c-28.7-87-48.9-168.6-49.1-169.4l3.9-1
	c0.8,3.2,80.3,323.7,150.6,376.6h50.4V411.7z"/>
<path style="fill:#7F3F98;" d="M757.8,650.7l-97-2.1l0.2-2.1c0.1-1,7.7-95.6,12.6-123.9c3.7-21,20.5-97.4,27.2-107.8l0.6-0.9h51.8v4
	h-49.5c-6.5,12.7-22.4,84.3-26.1,105.4c-4.5,25.7-11.3,107.2-12.4,121.4l88.6,1.9V31.6h4V650.7z"/>
<rect x="116.1" y="493.6" style="fill:#7F3F98;" width="563.8" height="4"/>
<polygon style="fill:#7F3F98;" points="665.3,633.8 388.3,633.8 131.3,632.9 131.3,628.9 388.3,629.8 665.3,629.8 "/>
<path style="fill:#7F3F98;" d="M259.7,591.8l-42.8-18.7l1.1-2.5l-1.2-2.4l43.6-21.4l45.9,23.3l-25.3,11.7L259.7,591.8z M221.2,570.6
	l38.5,16.8l37.4-17.4l-36.7-18.7L221.2,570.6z"/>
<path style="fill:#7F3F98;" d="M508.2,594.5l-42.8-18.7l1.1-2.4l-1.1-2.3l23.3-11.5l20.3-9.9l22.1,11.1l23.8,12.2l-25.2,11.6
	L508.2,594.5z M469.8,573.4l38.4,16.7l19.7-9.1l17.8-8.2l-16.4-8.4l-20.3-10.2l-18.5,9.1L469.8,573.4z"/>
</svg>
